<svg xmlns="http://www.w3.org/2000/svg" width="315.63" height="315.63" viewBox="0 0 315.63 315.63">
  <g id="Grupo_2" data-name="Grupo 2" transform="translate(-2394 -4352.093)">
    <path id="Caminho_6" data-name="Caminho 6" d="M246.13,264.53A46.07,46.07,0,0,1,213.35,251L166,203.62a9,9,0,0,0-12.44,0l-47.51,47.51A46.09,46.09,0,0,1,73.27,264.7H64l60,60a48,48,0,0,0,67.81,0l60.12-60.13Z" transform="translate(2394.023 4329.001)" fill="#32bcad"/>
    <path id="Caminho_7" data-name="Caminho 7" d="M73.28,97.09a46.08,46.08,0,0,1,32.78,13.57l47.51,47.52a8.81,8.81,0,0,0,12.44,0l47.34-47.34a46,46,0,0,1,32.78-13.58h5.7L191.71,37.14a47.94,47.94,0,0,0-67.81,0L64,97.09Z" transform="translate(2394.023 4329.001)" fill="#32bcad"/>
    <path id="Caminho_8" data-name="Caminho 8" d="M301.56,147l-36.33-36.33a7,7,0,0,1-2.58.52H246.13a32.62,32.62,0,0,0-22.93,9.5L175.86,168a22.74,22.74,0,0,1-32.13,0L96.21,120.51A32.62,32.62,0,0,0,73.28,111H53a7.12,7.12,0,0,1-2.44-.49L14,147a48,48,0,0,0,0,67.81l36.48,36.48a6.85,6.85,0,0,1,2.44-.49H73.28a32.63,32.63,0,0,0,22.93-9.51l47.51-47.51c8.59-8.58,23.56-8.58,32.14,0l47.34,47.33a32.62,32.62,0,0,0,22.93,9.5h16.52a6.9,6.9,0,0,1,2.58.52l36.33-36.33a47.94,47.94,0,0,0,0-67.81" transform="translate(2394.023 4329.001)" fill="#32bcad"/>
  </g>
</svg>
