<?xml version="1.0" encoding="utf-8"?>
<!-- Generator: Adobe Illustrator 29.8.1, SVG Export Plug-In . SVG Version: 9.03 Build 0)  -->
<svg version="1.0" id="svg39820" xmlns:svg="http://www.w3.org/2000/svg"
	 xmlns="http://www.w3.org/2000/svg" xmlns:xlink="http://www.w3.org/1999/xlink" x="0px" y="0px" viewBox="0 0 591.98 153.25"
	 style="enable-background:new 0 0 591.98 153.25;" xml:space="preserve">
<style type="text/css">
	
		.st0{clip-path:url(#SVGID_00000077303979377142275580000002780081225778451348_);fill-rule:evenodd;clip-rule:evenodd;fill:#FFFFFF;}
	.st1{fill:#FFFFFF;}
	.st2{fill-rule:evenodd;clip-rule:evenodd;fill:#FFFFFF;}
</style>
<g>
	<defs>
		<rect id="SVGID_1_" x="0" y="0" width="591.98" height="153.25"/>
	</defs>
	<clipPath id="SVGID_00000078028900169651174220000015742750715084742043_">
		<use xlink:href="#SVGID_1_"  style="overflow:visible;"/>
	</clipPath>
	
		<path id="path37647" style="clip-path:url(#SVGID_00000078028900169651174220000015742750715084742043_);fill-rule:evenodd;clip-rule:evenodd;fill:#FFFFFF;" d="
		M525.52,116.7V36.82c0-6.44-2.71-8.54-8.81-8.54H498.4v8.82h2.03c3.39,0,4.75,1.29,4.75,5.22v74.39H525.52z M536.37,116.7h19.66
		V56.42c0-6.1-2.71-8.54-8.81-8.54h-10.85V116.7z M494.33,116.7V47.87h-10.85c-6.1,0-8.82,2.44-8.82,8.54v60.28H494.33z
		 M579.09,76.56c0,37.36-27.12,64.62-63.74,64.62s-63.74-27.26-63.74-64.62c0-37.36,27.12-64.62,63.74-64.62
		S579.09,39.19,579.09,76.56 M591.98,76.56C591.98,32.82,559.43,0,515.35,0c-43.4,0-76.62,32.82-76.62,76.56
		c0,43.87,33.23,76.69,76.62,76.69C559.43,153.25,591.98,120.43,591.98,76.56"/>
</g>
<g>
	<path id="path37629" class="st1" d="M191.22,114.4V35.88c0-4.08-2.44-6.22-6.71-6.22h-18.9v7.01h1.22c3.66,0,5.49,1.52,5.49,4.82
		v72.91"/>
	<path id="path37631" class="st1" d="M225.36,114.4V35.88c0-4.08-2.44-6.22-6.71-6.22h-18.9v7.01h1.22c3.66,0,5.49,1.52,5.49,4.82
		v72.91"/>
</g>
<path id="path37635" class="st2" d="M270.48,83.61v12.68c-3.66,3.66-7.93,5.73-11.58,5.73c-3.66,0-5.49-1.77-5.49-6.52
	c0-5.24,1.22-7.25,5.49-8.9C261.94,85.32,264.99,84.53,270.48,83.61 M243.65,68.43l1.83-0.73c4.88-1.95,7.93-2.68,11.58-3.35
	c1.83-0.24,4.27-0.49,5.49-0.49c6.1,0,7.93,2.01,7.93,7.62v1.59c-8.54,1.4-10.97,1.89-15.85,2.93c-2.44,0.61-4.88,1.4-7.32,2.44
	c-7.93,3.17-11.58,9.27-11.58,18.84c0,12.01,4.88,17.74,15.85,17.74c4.27,0,8.54-0.98,11.58-2.93c3.05-1.4,4.27-2.13,7.93-5.49v1.95
	c0,3.96,1.83,5.85,5.49,5.85h18.29v-6.52h-0.61c-3.66,0-5.49-1.65-5.49-4.94V71.79c0-16.22-5.49-21.7-21.34-21.7
	c-5.49,0-10.36,0.61-15.24,1.77c-4.88,1.16-7.32,2.01-12.8,4.88"/>
<path id="path37637" class="st2" d="M323.52,114.4V71.36c4.27-3.96,7.32-5.49,11.58-5.49c4.27,0,5.49,1.83,5.49,8.29v40.24h18.9
	V71.11c0-8.9-1.22-12.74-3.66-16.09c-3.05-3.29-6.71-4.82-12.19-4.82c-7.32,0-12.8,2.68-21.34,10.06v-3.41
	c0-3.96-1.83-5.91-5.49-5.91h-18.29v6.89h0.61c3.66,0,5.49,1.52,5.49,5v51.58"/>
<g>
	<path class="st1" d="M23.97,85.33c0.34,3.64,0.92,5.47,2.18,7.49c2.02,3.04,5.54,4.76,9.83,4.76c6.47,0,10.33-3.44,10.33-9.11
		c0-3.14-1.34-5.87-3.53-7.08c-1.76-1.01-3.86-1.72-12.6-4.15c-7.73-2.02-10.42-3.24-13.53-5.87c-5.29-4.45-8.15-11.23-8.15-19.43
		c0-15.59,10.42-25.4,26.97-25.4c10.67,0,18.82,3.95,23.36,11.54c2.1,3.34,3.11,6.38,4.2,12.15l-17.81,2.33
		c-1.01-6.58-4.03-9.31-10.42-9.31c-5.12,0-8.91,3.34-8.91,8c0,2.83,1.26,4.96,3.95,6.48c1.68,0.91,1.68,0.91,11.59,3.34
		c6.39,1.62,10.42,3.34,13.61,5.77c6.05,4.55,9.07,11.34,9.07,20.65c0,7.59-2.02,14.07-5.88,18.62c-4.87,5.67-12.27,8.6-22.1,8.6
		c-7.14,0-14.2-1.82-18.74-4.96c-4.2-2.83-7.31-7.19-9.07-12.96c-0.84-2.43-1.26-4.76-1.85-9.41L23.97,85.33z"/>
	<path class="st1" d="M78.66,48.89c0-5.06-0.17-9.11-0.67-13.87h17.14c-0.42,4.15-0.67,9.01-0.67,13.87v2.13h3.02
		c3.7,0,5.63-0.1,8.23-0.51v16.8c-2.52-0.4-4.7-0.61-7.73-0.61h-3.53v25.91c0,2.83,0.42,4.25,1.51,5.16
		c0.92,0.71,2.27,1.11,3.86,1.11c2.18,0,3.78-0.51,5.88-1.82l1.26,15.38c-3.78,1.42-7.06,2.02-11.59,2.02
		c-5.71,0-9.66-1.11-12.35-3.54c-3.19-2.93-4.37-6.38-4.37-13.26V66.71h-3.19c-2.69,0-4.87,0.2-7.31,0.61v-16.9
		c2.44,0.41,4.54,0.61,7.48,0.61h3.02V48.89z"/>
	<path class="st1" d="M125.54,87.56c0.84,8.2,4.79,12.55,11.43,12.55c3.36,0,6.3-1.32,8.49-3.75c1.26-1.42,1.85-2.53,2.52-5.16
		l14.62,4.96c-1.93,5.26-3.19,7.59-5.54,10.42c-4.79,5.67-11.51,8.6-19.83,8.6c-8.23,0-14.7-2.83-19.49-8.6
		c-4.96-6.07-7.65-14.68-7.65-24.7c0-20.04,10.67-33.3,26.72-33.3c13.11,0,22.26,8.6,25.2,23.68c0.67,3.24,1.01,7.49,1.26,13.26
		c0,0.4,0,1.01,0.08,2.02H125.54z M147.39,73.59c-1.18-6.48-4.79-9.92-10.59-9.92c-5.97,0-9.58,3.24-11.01,9.92H147.39z"/>
</g>
<path id="path37645_00000093898859329173704770000016786881203768423590_" class="st1" d="M418.63,102.15h-28.04l26.82-38.29V50.81
	h-40.24c-4.88,0-6.71,1.95-6.71,6.65v11.52h6.71V67.7c0-3.48,1.83-4.88,5.49-4.88h14.63l-27.43,38.29v13.17h48.77"/>
</svg>
